<?xml version="1.0" encoding="utf-8"?>
<!-- Generator: Adobe Illustrator 26.5.0, SVG Export Plug-In . SVG Version: 6.00 Build 0)  -->
<svg version="1.1" id="Layer_1" xmlns="http://www.w3.org/2000/svg" xmlns:xlink="http://www.w3.org/1999/xlink" x="0px" y="0px"
	 viewBox="0 0 1500 792" style="enable-background:new 0 0 1500 792;" xml:space="preserve">
<style type="text/css">
	.st0{fill:#FFD700;}
	.st1{fill:none;stroke:#FFD700;stroke-width:14;stroke-linecap:round;stroke-miterlimit:10;}
	.st2{fill:#115173;}
</style>
<g>
	<g>
		<path class="st0" d="M655.38,317.06c0,67.19-54.47,121.66-121.66,121.66c-67.19,0-121.66-54.47-121.66-121.66
			c0-67.19,54.47-121.66,121.66-121.66C600.91,195.39,655.38,249.86,655.38,317.06z"/>
		<path class="st0" d="M953.98,317.06c0,67.19-54.47,121.66-121.66,121.66c-67.19,0-121.66-54.47-121.66-121.66
			c0-67.19,54.47-121.66,121.66-121.66C899.51,195.39,953.98,249.86,953.98,317.06z"/>
	</g>
	<path class="st1" d="M785.19,529.59c0,0-18.94,66.31-102.18,66.31c-83.23,0-102.17-66.31-102.17-66.31"/>
	<g>
		<path class="st2" d="M388.12,326.09c0,20.32-3.81,39.35-11.42,57.12c-7.62,17.78-18.07,33.3-31.34,46.58
			c-13.28,13.28-28.81,23.73-46.58,31.34c-17.77,7.62-36.82,11.42-57.12,11.42c-25.78,0-49.61-6.05-71.47-18.16v94.33H95.2V326.09
			c0-20.3,3.81-39.34,11.42-57.12c7.62-17.76,18.06-33.29,31.34-46.58c13.27-13.27,28.8-23.72,46.58-31.34
			c17.77-7.62,36.8-11.43,57.12-11.43c20.3,0,39.34,3.81,57.12,11.43c17.77,7.62,33.29,18.06,46.58,31.34
			c13.27,13.29,23.72,28.81,31.34,46.58C384.31,286.75,388.12,305.79,388.12,326.09z M313.13,326.09c0-9.75-1.86-19.04-5.56-27.83
			c-3.72-8.79-8.79-16.41-15.23-22.85s-14.06-11.51-22.85-15.23c-8.79-3.7-18.07-5.56-27.83-5.56c-9.77,0-19.04,1.86-27.83,5.56
			c-8.79,3.72-16.41,8.79-22.85,15.23s-11.52,14.06-15.23,22.85c-3.72,8.79-5.56,18.07-5.56,27.83c0,9.77,1.85,19.04,5.56,27.83
			c3.71,8.79,8.79,16.41,15.23,22.85s14.06,11.53,22.85,15.23c8.79,3.72,18.06,5.56,27.83,5.56c9.76,0,19.04-1.85,27.83-5.56
			c8.79-3.7,16.41-8.79,22.85-15.23s11.52-14.06,15.23-22.85C311.27,345.13,313.13,335.86,313.13,326.09z"/>
	</g>
	<g>
		<path class="st2" d="M1064.38,253.69v274.17c0,9.75,1.85,19.04,5.56,27.83c3.71,8.79,8.79,16.41,15.23,22.85
			s14.06,11.51,22.85,15.23c8.79,3.7,18.06,5.56,27.83,5.56c9.76,0,19.04-1.86,27.83-5.56c13.27-5.6,22.85-15.23,22.85-15.23l0,0
			c17.66-11.29,39.43-9.08,50.83,2.75c14.42,14.97,12.45,45.56-10.58,61.63c-7.57,5.98-18.85,13.69-33.8,19.99
			c-9.13,3.85-29.73,11.42-57.12,11.42c-20.31,0-39.35-3.8-57.12-11.42c-17.76-7.62-33.29-18.07-46.58-31.34
			c-13.27-13.28-23.72-28.81-31.34-46.58c-7.62-17.78-11.43-36.82-11.43-57.12V253.69H1064.38z M1063.35,196.86
			c0,20.14-16.33,36.47-36.47,36.47c-20.14,0-36.47-16.33-36.47-36.47s16.33-36.47,36.47-36.47
			C1047.03,160.39,1063.35,176.72,1063.35,196.86z"/>
	</g>
	<g>
		<path class="st2" d="M1271.21,158.41c20.3,0,39.34,3.81,57.12,11.43c17.77,7.62,33.3,18.07,46.58,31.34
			c13.27,13.28,23.73,28.81,31.34,46.57c7.62,17.78,11.42,36.82,11.42,57.12v222.62h-74.99v-73.82h-142.94v73.82h-74.99V304.87
			c0-20.3,3.8-39.34,11.42-57.12c7.62-17.76,18.06-33.29,31.34-46.57c13.27-13.27,28.8-23.73,46.58-31.34
			C1231.85,162.22,1250.9,158.41,1271.21,158.41z M1342.68,304.87c0-9.75-1.86-19.04-5.56-27.83c-3.72-8.79-8.79-16.41-15.23-22.85
			c-6.44-6.44-14.06-11.51-22.85-15.23c-8.79-3.7-18.07-5.56-27.83-5.56c-9.77,0-19.04,1.86-27.83,5.56
			c-8.79,3.72-16.41,8.79-22.85,15.23c-6.44,6.44-11.53,14.06-15.23,22.85c-3.72,8.79-5.56,18.07-5.56,27.83v73.82h142.94V304.87z"
			/>
	</g>
</g>
</svg>
